<svg id="Réteg_1" data-name="Réteg 1" xmlns="http://www.w3.org/2000/svg" viewBox="0 0 129 25"><defs><style>.cls-1{fill:#72be44;}.cls-2{fill:#fff;}</style></defs><title>zöld_nyakkendő</title><path class="cls-1" d="M3.27,5.4l-.91.11C7,11.05,14.18,7.31,20.21,7.9,16.51,1,9.12,4.75,3.27,5.4m29.18.32C28.64,2.44,23,2.15,17.93,3.22l-1.11.12c2.42,1.41,4,4.36,6.89,4.56q3.06.3,6,.86c2,.37,4,.77,6.18,1a20.66,20.66,0,0,0-3.45-4m7.46-1C38.32,4.41,36.69,4.23,35,4a13.5,13.5,0,0,1-1.94-.33l-1.05-.17a31.43,31.43,0,0,1,2.44,3,15.83,15.83,0,0,0,2.73,2.76c5.25,2.2,10.9,2,16.34,3A18.81,18.81,0,0,0,39.91,4.71M77,5.9a34.16,34.16,0,0,1,3-2.53,60.39,60.39,0,0,0-10.84.35c-1.8.19-3.59.43-5.25.72a58.72,58.72,0,0,1-15.62.95h-.49A143.54,143.54,0,0,1,65.62,22.62c3.7-4.13,5.26-9.64,8.69-13.91.85-1,1.74-1.91,2.67-2.81m19.57-.79c-4.28-.39-8.56-1.77-13-1.57l-1-.07a39.81,39.81,0,0,0-3.7,3Q77.05,8.1,75.45,9.87c6.9-2,16,1.34,21.1-4.76m16.15-1c-4.09,1-8.17,2-12.51,1.5l-1-.18c-2,1.23-3.39,3-5.33,4.18,6.42,1.78,16,2,18.87-5.5m14.39-.6c-1.84-.09-3.74-.14-5.65-.14a45.7,45.7,0,0,0-5.39.36l-1,.09c-.77,2-2.29,3.15-3.07,5.08a18.46,18.46,0,0,1,5.93-.67A12.86,12.86,0,0,0,124.08,7a5.87,5.87,0,0,0,3-3.43"/><path class="cls-2" d="M65.94,16a1.46,1.46,0,0,0-.83-.24,1.44,1.44,0,0,0-.77.37s.32-.5.63-.53l-.24-.22-.06.05v0a.11.11,0,0,1-.22,0,.11.11,0,0,1,.12-.11h0l.06-.06-.09-.08h0a.1.1,0,0,1-.11-.1.11.11,0,0,1,.11-.11.13.13,0,0,1,.12.11h0l.09.09.06-.06v0a.11.11,0,1,1,.11.11h0l-.06.05.31.29h0a1,1,0,0,1,.81.42m2.88-2.57a1.28,1.28,0,0,0-1.53-1.14,1.88,1.88,0,0,0-1,.33,2.06,2.06,0,0,0-.4.44,3.71,3.71,0,0,0,.34-1.49,1.78,1.78,0,0,0-1.08-1.35c-.19-.1-.69-.47-.69-.47a7.51,7.51,0,0,1-.59.6,1.74,1.74,0,0,0-.79,1.52,3.59,3.59,0,0,0,.62,1.4,2,2,0,0,0-.48-.35,1.8,1.8,0,0,0-1-.15A1.29,1.29,0,0,0,61,14.13a1.73,1.73,0,0,0,.64,1.19,3.38,3.38,0,0,0,.54.34s.12-.82.72-.88c.77-.07,1.16.83,1.19,1.21a1.81,1.81,0,0,1-.14.89c-.26.58-.64.3-.81.07-.1.62-.07.9.18,1.09a.74.74,0,0,0,.78.06,1.23,1.23,0,0,0,.45-.42s-.17.61.88,1.37c.88-.95.6-1.51.6-1.51a1.17,1.17,0,0,0,.52.33.74.74,0,0,0,.75-.21c.21-.24.19-.52,0-1.11-.12.27-.44.61-.81.09a1.71,1.71,0,0,1-.31-.85c0-.37.17-1.33.94-1.41.6-.05.88.73.88.73a2.86,2.86,0,0,0,.45-.44,1.68,1.68,0,0,0,.41-1.29"/></svg>