<svg preserveAspectRatio="none" xmlns="http://www.w3.org/2000/svg" viewBox="0 0 311.24 29.76"><defs><style>.cls-1{fill:#72bf44;}</style></defs><title>border</title><g id="Réteg_2" data-name="Réteg 2"><g id="Réteg_1" data-name="Réteg 1"><path class="cls-1" d="M306.41.8s.16,0,.3,0h0l.19.14a1.75,1.75,0,0,1-.34,0c0-.05,0-.11-.12-.11M305.12.17h.71l.15.2.06,0h-.22c.14-.2-.27-.22-.7-.23m-1.26.17A16.93,16.93,0,0,0,301.07.2l.13,0h3a.71.71,0,0,1-.35.17m-4.24.25c-.27-.1.45-.14.12-.29h.08c.52,0,1,.08,1.51.09,0,.09.22.08.13.19-.41.05-1.5,0-1.84,0M281.56.42l-.12-.1a1.34,1.34,0,0,1,.33,0,.4.4,0,0,1-.21.06M266.4.5l.53-.09a5.89,5.89,0,0,0,.73,0c0,.16-.88.05-1.26.09m.05.46s-.13-.08,0-.13a24.53,24.53,0,0,1,5.53.22H271c-.22,0,0,.21-.21.23a9,9,0,0,1-1.57-.07c.08-.06.31-.08.19-.21-.64-.08-2.3,0-3,0m-1-.53a1.55,1.55,0,0,1-.31,0A1.71,1.71,0,0,1,266,.28l-.58.15m.53.62A4.64,4.64,0,0,1,265,1V.87l.1-.05h0c.1,0,.25-.09.25-.17.17.15.67.18.6.4m-1.86-.6-.05-.11a1.1,1.1,0,0,1,.49.06l-.44,0m.48.61h-.08l.12,0ZM262.45.43,262.3.36a1.64,1.64,0,0,0,.41-.1.59.59,0,0,0,.39.1c-.14.1-.26.18-.65.07M170.11.18a2.64,2.64,0,0,1,.68,0c0,.07,0,.12-.15.16-.44,0-.42-.07-.53-.13M164.83.06h0M158.6.14a10,10,0,0,1-1.35-.06.57.57,0,0,1,.22,0h.28a2.79,2.79,0,0,1,.85.09m-8.84.44c0-.22,1.31-.11,1.35,0a6.87,6.87,0,0,1-1.35,0M135.29.33c.24-.11.53,0,.4,0-.36,0-2.28,0-.4,0M117.84.05l-.1,0H118ZM105.07,0h4.64c-1.5.18-2.87-.07-4.21.19a1.24,1.24,0,0,1-.43-.19m-4.17,0a12.66,12.66,0,0,1,1.76.11,2.17,2.17,0,0,0,.47-.15h.8c-.47,0-.89,0-.74.23A6.63,6.63,0,0,1,100.9.05m-.67,0A2.6,2.6,0,0,1,99.36,0h.32V0a1.72,1.72,0,0,1,.54.05M97.52,0a8.55,8.55,0,0,1,1.35.06c-.24.05-1.31.07-1.35-.06m-1,.11V0h.5l0,.08a2.7,2.7,0,0,1-.54,0M84.76.39c.24,0,.8,0,.81,0-.19,0-.16.09-.28.12-.42,0-.37-.11-.53-.17m-4.91.5c.4,0,.36-.16,1-.11.24.19-.74.2-1,.11m-5-.19c.28,0,.89,0,1,.05a1.94,1.94,0,0,1-1-.05M11.44,3.58A4.56,4.56,0,0,1,11,3.27a1.06,1.06,0,0,1,.37.14.88.88,0,0,1,.38-.1l.21.07c-.1.07-.12.14-.1.21a2.14,2.14,0,0,0-.44,0M8.36,9.36s.18,0,.33,0c.07.22-1.09,0-.66-.08,0,0,.09,0,.22,0l.22,0Zm.08-1.17a4.48,4.48,0,0,0-.77,0c-.4.13-.16.29-.76.38.39-.34.48-1.08,2-.91,0,.24-.47.31-.43.56m-1.74,1c.28.05.53-.08.55,0a2.64,2.64,0,0,1-.55.07c-.21,0-.08-.23.11-.1ZM6.51,5.53c.21-.25,1.26-.06,1.43.11a4.7,4.7,0,0,1-1.21-.18s0,.08-.22.07m-.44.14c.16,0,.28.06.44.07-.22.17.17.31-.32.36a.63.63,0,0,0-.56-.18A9.73,9.73,0,0,1,4,6c.72-.08,1.18-.22,2.09-.32m0,5c-.16.12.36.21.12.24.08-.09-.52,0-.45-.07.27,0-.25-.2.33-.17m.83,3.08-.12-.18h0c0,.05.27,0,.44,0s-.15.09-.1.17l-.24,0M5.38,9.39c.18.11.57-.05.66,0a3.08,3.08,0,0,1-.88.11c-.14-.07-.08-.19-.33-.22.13,0,.26,0,.22-.07.45.05.85-.1,1.1,0l-.22,0c.13,0,.31,0,.33,0-.39.06-.69-.06-.88.07M4.62,5.28l-1-.06,0-.1,1.86.16c.2,0,.07.12.22.14a3.92,3.92,0,0,1-1.11-.14m.54-.46c.47,0,.27.08.12.14.21.1.84.07,1,.18a8.47,8.47,0,0,1-1.67-.21c.32.07.89,0,.55-.11m-1.9,0c.09-.11.32-.17.3-.31a2.72,2.72,0,0,1,.83.1l-.11.14c.23,0,.83,0,.44.07-.18,0-.73-.12-.77,0,.24,0,.35,0,.33.11a1.8,1.8,0,0,0-.62,0,.8.8,0,0,1-.4-.08m1.36,5.86a.92.92,0,0,0,.35.06c-.14.19.13.26.45.39,0,0-.14,0-.33,0,0,.13.28.17.34.28.34,0-.3-.18.1-.21s.11.21.56.25c0,.07-.41-.06-.55,0s.31.09.44.15c-.54.09-.38.42-.09.53l-.09.05c-.33,0-.15-.21-.42-.25-.47,0-.07.14-.23.23h0c-.38-.14.15-.28-.06-.45.08-.11.31.1.34,0a2.09,2.09,0,0,1-.24-.28c-.24,0-.09.11-.27.11s.06-.14,0-.22c-.68-.16,0-.42-.27-.69m1,3.36c0-.12.09-.21-.08-.3-.42,0-.22,0-.61,0-.06-.09.11-.11.26-.13l-.06,0c.36,0,.24,0,.56-.07a1.87,1.87,0,0,0,.71.21h0c-.4.05-.25.27-.76.28m-1.3-1.95c.06-.06-.09-.2.1-.22,0,0,.14,0,.26,0s-.23.13-.36.19m.21.5,0-.08.05.07Zm.17.21-.07-.07h.28l-.09.08Zm.25.55,0,0H5l-.07,0ZM3,5.05h.12l0,.13h0V5.12c-.13,0-.13,0-.1-.07m.67,4.88-.21-.09c.54,0,.63-.08.71-.19h.07l0,0c.37.11,0,.15.12.24l-.65.08m1.66,6.6c0-.09-.35-.08-.25-.2.41,0,.44.15.25.2m.08.17c.12.16.44.35.23.53-.37-.07-.63-.41-.23-.53M3.46,10.64l0-.05.09,0a.34.34,0,0,1,.25.11,2.5,2.5,0,0,0-.32,0M1.18,3.35l0,0h.07Zm2.19,8.76c0-.12,0-.25,0-.38h.13a.27.27,0,0,1-.12.38m.87,3.24.26.06c0,.09-.23.08-.36.11.06,0-.09-.16.1-.17M0,3.42v0a2.7,2.7,0,0,1,.83,0,7.7,7.7,0,0,1-.83,0M1.27,4.63,0,4.56V4.5c.44,0,1,.08,1.25.12Zm.14.42L0,5v-.2l1.33.14ZM.77,26.39c.09,0,0,.07,0,.11s-.17-.06-.15-.12H.77ZM2.41,16.1,2.29,16h0ZM6.69,27.65c-.26,0-.34-.13-.61,0,0-.14-.51-.26.11-.3.2.09.8.17.5.33m.69,0,.1.08a1.26,1.26,0,0,0-.28.05Zm.11-.44c.14.15.53.22.41.45-.83.05-.64-.22-.76-.4a5.25,5.25,0,0,0-1.21-.06c-.23-.05.06-.25-.16-.3s-.29,0-.6,0l0-.07h.15l-.14,0c0-.09.24-.13.3-.21l0,.1c.88-.23.37.27.89.18,0,.08-.19.1-.1.21.42.12.75.05,1.2.14m.7-.14v.14a3.13,3.13,0,0,0-.68,0c.07-.09.42-.09.68-.13m1.17-.92a5,5,0,0,0-1.21.25c-.46-.09-.11-.16-.23-.25a6.12,6.12,0,0,0-.66,0c-.08.15.17.19.12.32-.37,0-.43-.1-.45-.21-.75,0-.94.21-1.57.15A1,1,0,0,1,5,26.21c.35-.08.91-.09,1.27-.17a5.22,5.22,0,0,1-1.21-.14H4.91c0-.18.19-.37.17-.58l.35-.11h0c.16,0,.32-.07.5-.09.48.11.87.19.67.39a1.24,1.24,0,0,0-.22,0c-.05,0-.37-.18-.22-.17-.24-.09-.66-.08-.67.07.23,0,.35,0,.34.07s-.3-.05-.44,0c.11.05.11.13.22.18s.23,0,.22-.1c.19,0,.14.16.45.17-.14,0-.74.06-.66.25C6,26,6.79,25.62,7,25.9a2.2,2.2,0,0,0,1.1-.28c0,.12.33.19.34.39A2.53,2.53,0,0,0,9,26c.23,0,.11.13.34.14M111.22,29.6c2.36,0,4.76-.05,7.22,0Zm39.07-.06,5.53.1H144.5l1.1,0c.15-.15-.38-.12-.37-.24,1.86-.11,3.16-.16,5.08-.16.6.17-.52.22,0,.35m9-.45a12,12,0,0,1,1.94.08c-.34.12-8.09-4.21-1.94-.08m18.89.5c-.48,0-.95,0-1-.13.25,0,.18-.1.4-.11.07.11.89,0,.56.24m14.7-.79c-.35.17-.77,0-.59,0,.53-.06,3.29,0,.59,0m8.32.88h-1.67a4.18,4.18,0,0,1-1-.22c1,.07,2.7-.21,2.71.22M218,29.22c1.32.46,4.8-.08,7,.15-.89.08-2.92.33-3.32,0-.6.11-1.21.22-1.86.31H201.8c.08-.19.62-.23,1-.33,1.89.39,3.84-.11,5.45.25,2.61-.38,7.25.1,9.78-.38m10.59-.67c.58,0,2.43-.05,3.12,0,.15.17-.28.15-.22.29-1,0-1.78.11-2.74.14.66-.24-.64-.31-.16-.47m13.19,1.12-1,0,0-.17c.56,0,1.06,0,1,.19m.62-.46a19.88,19.88,0,0,1-2.53-.15c-.52.11-1.12.3-.63.57-3.59-.35-6,.16-9.53-.37,2.17-.25,4.13.11,6.07-.26.49.07.43.3.95.36.62-.2,2.76.09,2.37-.43a9.31,9.31,0,0,1,3.3.28m-.72-.83a7.35,7.35,0,0,1-1.55-.08c.22,0,.21-.09.2-.17a2.59,2.59,0,0,1,1.35.25m4,1.17c-1.06-.12-2.07.34-2.54,0,.46-.07,1.1-.09,1-.34-.29,0-.72,0-.77-.06a7,7,0,0,1,2.31.38m1.58-.27a11.78,11.78,0,0,1-1.94-.09c.35-.07,1.89-.1,1.94.09m1.38-.16v.18c-.35,0-1,0-.77-.13a4.1,4.1,0,0,1,.78-.05m17-.4c-.34,0-1.15.05-1.17-.07.28,0,.24-.13.41-.17.61,0,.54.15.76.24m7.08-.72c-.58,0-.51.24-1.38.16-.34-.27,1.08-.29,1.38-.16m4.89-.16a8.68,8.68,0,0,1-3.72.12,20.76,20.76,0,0,1,3.72-.12m2.31.44c-.4,0-1.29,0-1.36-.08a2.58,2.58,0,0,1,1.36.08m.3,1.46c2.15-.06,4.39-.06,6.77,0Zm12.49-.17c-1,.07-3.31.12-3.5-.22a7,7,0,0,1,3.5.22m1.94.09a6.32,6.32,0,0,1,.67.1H294l.74-.1m3.71.1h-.77a2.21,2.21,0,0,0,.38-.11,2.35,2.35,0,0,0,.39.11m2.69-2.33-.68.05v.18c-.41.13-1.28.11-1.69.24a6.74,6.74,0,0,0-3.1-.22c-.2,0-.21-.07-.23-.13,1.27,0,1.73-.47,3.66-.32.61,0,.56-.14.8-.22.56,0,.46.29.75.42h.49m5.3.09c.09.08.24.15.2.27s-.19.06-.33.07l0-.16v0c0-.05,0-.1.18-.14m.46-.06.18,0v.07a.54.54,0,0,1-.18,0m.19-.14h0l-.38.06-.05,0c.2,0,.24,0,.43,0m.67-1.09a1,1,0,0,1-.45.06l-.2,0a1.2,1.2,0,0,0,.57-.07Zm.14-.24c0-.12,0-.4-.18-.55.75,0,.24.5.18.55m1.28.91a3.11,3.11,0,0,0,.44-.08l0,.06a1.21,1.21,0,0,0-.41.19Zm1.57-.69-.2.1,0,.19h0c-.13-.13-.22-.28-.06-.41a.89.89,0,0,1,.3.11M11.78,27.93l.35,0,.13.1c-.2,0-.42,0-.65,0l-.18,0,0-.07.39-.07M8.9,5.77l.21,0Zm300.74,6.1v.29a.92.92,0,0,0,.16.19c0-.12,0-.4.18-.55a.6.6,0,0,0-.33.07m.28,3.6v0h-.19v.18c.25,0,.79-.08.71-.29a2.49,2.49,0,0,0-.51.07m.79.54c-.14-.06-.14-.16-.28-.22s-.27.06-.26.13c-.21-.05-.2-.17-.46-.2a2.22,2.22,0,0,1-.09.37c.12.07.27.14.15.14.29.1.81.09.81-.09-.27,0-.43,0-.41-.09s.36.07.54,0m-2.13,6.21c-.27,0-.1.28.13.13l-.14-.05c.34-.05.66.1.68,0a5.37,5.37,0,0,0-.67-.08m-.54-.09a1.67,1.67,0,0,0-.31,0v.06c.14,0,.29,0,.31,0m-.14.09h-.18v.05Zm-.16-.2,0,0h0ZM301.33,1.11c-.2,0-.2.08-.19.16l.15,0h0c.12,0,.06-.08,0-.14m5.26,23.61-.08.09c.13,0,.25.05.22.13.5,0,.23-.18-.14-.22m-2.39,2.47h-.06v.07c-.16,0-.16.07-.12.09h.15ZM286.37,1.53a4.1,4.1,0,0,0-.78.05c-.21.17.42.11.77.13ZM285,1.69c-.05-.19-1.59-.16-1.94-.09a11.78,11.78,0,0,0,1.94.09M283.41,2a7.26,7.26,0,0,0-2.31-.39c0,.08.48.06.77.07.1.25-.54.27-1,.34.47.32,1.48-.14,2.54,0m5.4,23.75h-.13l-.05,0ZM278.54,1.89l0,.17,1,0c.1-.18-.4-.2-1-.19m-5.6,25.22c-.65,0-1.3,0-1.92,0l1.92,0M262.74,1.78c-2.22-.23-5.7.31-7-.15a40.41,40.41,0,0,1-6.26.22l.12,0c.41.06.57,0,.92,0a13.9,13.9,0,0,0,1.67.11c1.31,0,2.67,0,4,0,.49,0,.82,0,1.18.06h.23c.65-.09,1.26-.2,1.86-.31.4.32,2.43.07,3.32,0m-31-.59h0M212.07.83c0-.25-1.5-.08-2.14-.15,0,.25,1.49.08,2.14.15m-2.35,0a9.93,9.93,0,0,0-1.95,0c.06.18,2,.34,1.95,0M173.1,28.29h0m-146-.35-1.15-.24H23.88l-.14-.08a2.33,2.33,0,0,1-.37.08H21.78c-.65.09-1.26.2-1.86.31-.41-.31-2.43-.06-3.32,0,2.22.24,5.7-.3,7,.16a20.66,20.66,0,0,1,3.47-.24m-9.23.42a.58.58,0,0,0-.3-.1l0,.1h.33m-1.62-.93a3,3,0,0,0,1,0c-.08.1-.53.07-.55.18s.19,0,.22,0c.36,0,.08.22.55.18-.35-.16,0-.36-.23-.53-.31.08-.69.13-1,.21m-.12-.35c0,.07.31,0,.23.14.39,0,.6,0,.88-.07,0-.33-.27-.58-.35-.89a3.13,3.13,0,0,0-.77.14,1.27,1.27,0,0,0,.67.47c-.1.1-.56.1-.66.21m-.36-1.21c.44,0,.84-.13.66-.21s-.7.06-.66.21m-8-7.74a4.85,4.85,0,0,1-.9-.8l0-.09,0,.13c.41.25.53.57.83.78a.24.24,0,0,0,.17,0M30.24,1.35l.24,0c.25-.05.48-.14.73-.19A.57.57,0,0,1,31,1c-.54,0-.89.1-.84.31ZM35.33,1c.42,0,1,0,1.09-.11H35.33ZM17.35,25l.15.07.11-.05Zm3.4,2H20.2c-.17.1.72.11.55,0m-7.21.8a.83.83,0,0,0-.32.08l.3-.05Zm-.68-.91a1.65,1.65,0,0,0,.34,0l0,0c-.18,0-.26,0-.3.07M12,27h0ZM279.4.79a2.62,2.62,0,0,0-1.35-.25c0,.08,0,.16-.2.17a7.35,7.35,0,0,0,1.55.08m30,2.13c-1.05,1.59.16,2.18-1,3.22a2.08,2.08,0,0,1,.61.21l0,.34a1.18,1.18,0,0,0,.07.58,9.72,9.72,0,0,1,.59,4.06c.34,0,.14.16.4.17l0,.11-.12,0,0,.06,0,0h.17c.13.31.3.61.42.91a1.2,1.2,0,0,1-.55-.09c-.14,0-.08.09-.1.14.23.08.45,0,.64.07s-.32.14-.19.31a.89.89,0,0,0,.31,0l0,.2a.93.93,0,0,0,.13.45.68.68,0,0,0-.22,0v.17a.78.78,0,0,0,.27,0l0,.1-.4,0h-.06a1.83,1.83,0,0,0-.57,0l.09,0h0l0,0a4.23,4.23,0,0,0,.9.1l0,.2v.13c-.15,0-.07.1-.25.1l.06.06,0,0h.06l.16.14v0a3.47,3.47,0,0,0-1.16,0c.37.11,1-.09,1,.12l-.1,0A1.5,1.5,0,0,1,311,15l0,.12c-.3,0-.68.09-1,.13l-.09.08a4.32,4.32,0,0,1,1.15.15h.11l0,.07a1.46,1.46,0,0,0-.18.63c-.1.06-.39.06-.43.14h0a3.8,3.8,0,0,1-.62.11l-.51-.12,0,.13c-.11.21-.46.47-.57.68s-.06.41-.18.6c.1,1-.52,1.55,1.34,2.65,2.7,0-3.3.68-.46.75l.15-.06a1.05,1.05,0,0,0,.31.18l.17.25c-.18.12-.16-.08-.43,0,.09.14.2.32.09.48-2.16,0,2.58,1.15.53,1.1.35.25.39.43.31.58l0-.1a8.54,8.54,0,0,1-.95,0c-.49-.17-.2-.36-.93-.48.32.3.49.8,1.14,1-.8.29-1.71.54-.53,1.13l.05.21.47.05.27.14c0,.12.2.21.18.36-.47,0-.25-.24-.84-.21a6.68,6.68,0,0,1,0,.89l-.49.06c-.1-.29-.2-.58,0-.81-.49-.31-.65-.71-1-1-.42,0-.1.2-.54.17-.08.09.11.1.19.15l0,.06,0,0c-.1.09-.23-.11-.42,0,.07.3-.21.56-.36.87-.58-.06-1.39,0-1.66,0,.66.07,1.2.18,1.86.28.08.07.29.09.19.21-.41,0-.37-.08-.63-.1a6,6,0,0,1-1.39.16.89.89,0,0,1,.11.35l-.57,0,0,.13.57-.05,0,.11a2.31,2.31,0,0,1,.43,0c-.07.13-.3.26-.34.4s-.31,0-.33-.07c.29,0,.43,0,.41-.13a2.44,2.44,0,0,1-.77,0,1.13,1.13,0,0,0-.49.1c.1.11.26.19.32.3L304,28c-.71-.1.46-.08.21-.23a18.23,18.23,0,0,1-3.37-.07l1.2-.12.06-.2-.3,0c0-.07.12-.12.38-.11-.33-.13-.43-.18-.17-.35-1.46-.15-2.7,0-4.28-.12-.38.09.26.23-.22.35-1.11,0-.91-.28-1.54-.37-.9,0-1.1.33-1,.69a7.13,7.13,0,0,1-1.93-.06,1,1,0,0,0-.77-.1l0,.11c-.32.12.5.16.22.39-1.27.33-1.46-.31-2.51-.38-.74.15-.46.3,0,.52a3.81,3.81,0,0,1-2.3-.61,1.92,1.92,0,0,0-1,.22,23.73,23.73,0,0,0-5.25-.2c-.25.13-.24.33-.62.4-1,0-1.55.11-2.54.09.05-.27,1.35-.13,1.2-.45-4.16,0-8.25-.3-10,.44a21,21,0,0,0-5.64-.26c-.17.45-2.52.19-3.15.49-.62,0-.62-.14-.57-.31-.75.08-1.34.11-1,.4-1.19-.05-2.08-.18-2.31-.5a26.75,26.75,0,0,0-3.51,0c.27.28-.17.14-.23.4-1.08.06-.65-.31-1.53-.31s-.39.28-1,.28-1.1-.11-1.15-.31c-.31.19-1,0-1.56,0l-.21.17c-.27,0-.62-.21-1-.25-1-.12-1.52.1-1.71-.16l-.52,0c.21.09.38.19.26.38a10.37,10.37,0,0,1,2.13.2c-1,.08-3,.29-3.31-.1.19-.06.72,0,.6-.17s-.48-.13-1-.13v-.12l-.5,0a1.45,1.45,0,0,1-.36-.09,8,8,0,0,0-1.48.16c0,.33,1.12,0,1.74.2-1,.24-1.95-.12-3.12,0-.76-.06.66-.21,0-.23s-1.28.11-2,.14c-.09.16.72.07.77.19-.36.17-1-.05-1.56,0-1.3.52-3.53-.2-5.68.27l-.11,0c-.46.07-.91.13-1.38.16-.67.05-1.5,0-2.31,0a2,2,0,0,0,.27,0,5.75,5.75,0,0,1-1.59.45c-.86-.05-1.08-.28-1.29-.51h-.32c-.19.06-.13.19.06.25a25.23,25.23,0,0,1-5.85,0,11.27,11.27,0,0,1-4.33.52c-.1-.23,1.35,0,1.19-.22-.67-.19-1.69.21-2.14-.08a21.14,21.14,0,0,0,2.08-.46H213.8a4.73,4.73,0,0,1-2.36.26A114.8,114.8,0,0,1,199,28.48a3.26,3.26,0,0,1-1.19.27c.36-.26.28-.22-.16-.47-.73,0-1.1.13-1.77.15-.06.18.52.37-.22.41.18-.42-2.49-.42-4.26-.47-.08.14-.22.25-.61.28a13.22,13.22,0,0,0-2.52-.21c.21.19-.32.14-.41.23-1.29-.45-3.72-.23-5.22-.36-2.87,0-5.74,0-8.6,0,.22,0,.38.06.38.13-.64-.07-2.09.1-2.13-.14h-.57a1.45,1.45,0,0,1-.61.11c.31,0,.62.06,1,.06,0,.31-1.89.15-1.95,0l.19,0h-.18l-1,0h0a5.36,5.36,0,0,1-1.84,0l-1,0a.79.79,0,0,0-.32.13,2.43,2.43,0,0,0-.43-.12h-5.07a25,25,0,0,1-3.47,0c-.24.2-1.1.2-1.39.39l-9.39.22a.58.58,0,0,1-.35-.1h-3.23l.07.06a3.85,3.85,0,0,1-1,0l0-.1s-8.18,0-9,0a65.55,65.55,0,0,1-6.87,0c-1.66-.07-3.65,0-5.32,0H109c-1.58,0-3.85.09-5.36,0-1.75-.11-2.71-.39-4.65-.41-1.24,0-9.5.11-9.56.39a16.32,16.32,0,0,0-3.59.33c-1.37.13-3.25.05-4.73,0a7.2,7.2,0,0,1-3.6-.6,6.66,6.66,0,0,0-2.88-.38c-3.43,0-6.51.38-10,.38H55.77q-12.9,0-25.8,0c-3.28,0-6.07-.21-9.45-.21-2.07,0-4.22,0-6.14-.2-.76-.08-1.47-.22-2.25-.32L12,27.89l-.22,0c-.32,0-.64-.06-1-.07.12,0-2.13-.71-2.08-.77s2.58-.48,3-.55c-.31-.1,0-.16-.22-.28l.33-.11c.4,0-.26.17.11.18s.07-.26.88-.25a1.6,1.6,0,0,0,.33.07c0,.1-.43,0-.33.15.72.14,4-.32,2.42-.43.27-.16-8.2-.71-7.84-.84-1-1.53.55-1.93-1.47-3.13-2.21,0,2.7-.55.37-.61,0,.05-.18,0-.27.06A1,1,0,0,0,5.75,21c.14-.1.13.06.35,0-.07-.11-.16-.26-.07-.39,1.76,0-2.11-.94-.43-.91-1.44-1,2.57-.9.8-1.79l0-.17-.39,0-.22-.11c0-.11-.16-.18-.15-.3.39,0,.2.19.68.17-.09-.6.34-1.18-.79-1.43.56-.19.46-.51.31-.8-.66,0-.31-.36-.76-.45,0-.09.19-.09.44-.08-.12-.11-.17-.2-.6-.14.06-.17.25-.3.71-.34l0-.2c.5.12.73.25.81.4-.22.05-.33.2-.17.28h.16l0,.1.27,0c-.1,0-.21,0-.22.05.45.26.11.6-.22.83,0,.09.23.12.36.17a3.68,3.68,0,0,1,.25-.54c.1-.2-.08-.42,0-.61s.43-.23.5-.34a1.83,1.83,0,0,0,.26-.89,3.34,3.34,0,0,0-.3-1.12v0a1,1,0,0,1,0-.87c.06-.1.39-.23.49-.33s.19-.32.32-.47a6.88,6.88,0,0,1,.68-.62c-.23,0-.53,0-.81,0,0,.14.1.29-.43.25.06-.21.31-.18.43-.32A3.54,3.54,0,0,0,9,10l.21-.17a2,2,0,0,0,.38-.4A2,2,0,0,0,9,9.4c0-.1.23-.09.44-.11l.14,0c.31-.55,0-1.13-.16-1.73-.06-.21.06-.35.1-.53s-.12-.23-.06-.35l.32-.14A3.38,3.38,0,0,0,10.28,6L8.94,5.85c.14,0,.18,0,.17,0,.39,0,.83.07,1.27.1l.13-.23c.06-.14,0-.35.09-.47S11,5.12,11,5s-.18-.3,0-.47.65-.38,1-.61l-.21-.11a1.39,1.39,0,0,1,.32,0l.15-.13c.08-.09.3-.11.36-.21l-.1-.28.21-.18-.1-.27.11-.15,0,0h0a3.22,3.22,0,0,1,1-.61c.63-.28.35-.08,1,0,.41,0,.86,0,1.28,0h.35l0,0,.37,0c.73,0,1.47-.07,2.21-.09a12.12,12.12,0,0,0,2.44.08A7,7,0,0,1,24,1.52a19,19,0,0,0,2.32.15c.94,0,1.89-.1,2.71-.18l.39,0L29.2,1.4c.11-.25,0-.3.17-.52C30.46.83,31.68.79,32.55.83c-.19,0-.23-.1-.18-.2,2-.29,4.28.08,6.62.14,0-.08.14-.13.31-.16l.07,0c.32,0,.74-.08,1.17-.1a4.42,4.42,0,0,0,.74.19c.07.11.42.11.75.07s.86,0,1.31,0a1.41,1.41,0,0,1,.34.1,16.84,16.84,0,0,0,2-.2h.08c.42.13,1.1,0,1.18.18A1.51,1.51,0,0,0,47.3.74l.36.07c0,.06-.06.1-.15.12h10l.72,0c.13,0,.16,0,.15,0H76.54A6.09,6.09,0,0,1,79,.92L78.3,1H85c.9,0,1.78,0,2.65,0a2,2,0,0,0,.59-.09c.23,0,.33,0,.37.06l.78,0L89.34.78a7.58,7.58,0,0,1,.76.06C91.6.77,93.33.76,94.88.71c3-.1,6-.23,9.17-.22h4.27c-.1-.12.2-.1.15-.2.69,0,1.24-.07,1.91-.1-.44.16.35.21.13.32h1c.25-.09.59-.14.88-.21a1.34,1.34,0,0,1,.73.21h.39l0,0a17.61,17.61,0,0,1,4.06,0,7.89,7.89,0,0,1,3-.36c.07.16-.94,0-.82.15.46.13,1.17-.14,1.48.06-.34.12-1,.14-1.36.27h1.07a3.25,3.25,0,0,1,1.5-.13,76.94,76.94,0,0,1,8.66.08,2.16,2.16,0,0,1,.83-.19c-.25.18-.2.15.11.32.51,0,.76-.08,1.23-.1,0-.12-.36-.25.15-.28-.12.29,1.73.29,3,.32.05-.09.15-.17.42-.19a8.71,8.71,0,0,0,1.75.14c-.15-.13.22-.09.28-.16a9.29,9.29,0,0,0,2.49.22h6.89L148.13.6a10.25,10.25,0,0,1,1.44.05h2.6l-.38,0c.44-.2,1.86.13,2.18-.13,1.21.42,4.17-.11,6.22.08.17-.14.77-.14,1-.27l5.06-.12h0c.33,0,.7,0,1,0h.46c.28,0,.26.12.4.17a2.41,2.41,0,0,1,.81-.07c0,.14-.11.16.67.21a2.81,2.81,0,0,1-1,.23c0,.11.49.07.7.12C170.13.73,171,.67,172,.68c1.44,0,2.59-.11,4-.1h5.44a6.94,6.94,0,0,0-.73-.06l.84,0a1.92,1.92,0,0,0,.67.09h13.65c.82,0,2-.06,2.77,0,.37,0,.51.14.85.19h0a13.35,13.35,0,0,1,4.21.19c.46-.39,2.5.09,3.14-.19-2.05-.33-4.48-.14-6.24-.26L213,.59s4,.09,7.69.15c.48,0,1,0,1.58,0l1.07,0a8.1,8.1,0,0,1,2.15.29c.09-.09.62,0,.41-.23h.36a3.12,3.12,0,0,0,1,.05c.4,0,.73.12,1.16.16s.48-.11.56-.22l.94,0c1.62,0,3.43.09,3.36.43h.16c.48-.06,0-.23.07-.39.67,0,1-.14,1.77-.15.44.25.52.21.16.47a3.26,3.26,0,0,0,1.19-.27l2,.07.8,0a82,82,0,0,0,9.67,0c2.33.22,2.08-.62,3.94-.36-.21.36-1.6.33-2.19.55.45.29,1.47-.1,2.14.09.16.25-1.29,0-1.19.22A11.27,11.27,0,0,0,256.16,1a6.74,6.74,0,0,0,.91.12c-.15,0-.24.09-.17.19.67-.06,1.37,0,2,0a3.43,3.43,0,0,1,.46-.11c.5,0,1.24.16,1.84.13.43,0,.45-.22,1-.16a.94.94,0,0,1,.25-.23,1,1,0,0,0,.32.19h0a2.33,2.33,0,0,0,.81.16l.55-.12c.77,0,1.55,0,2.16-.06.19.09.66.17.2.34l1.31-.07a31.47,31.47,0,0,0,4.07.13l.25.08c-1.49.07-3-.09-4.67.1,3.55.53,5.94,0,9.53.37-.49-.27.11-.46.64-.57a19.63,19.63,0,0,0,2.52.15,9.31,9.31,0,0,0-3.3-.28c.39.52-1.75.23-2.37.43-.52-.06-.46-.29-.95-.36l-.48.07-.14-.07c.28-.09.63-.32.1-.41.62-.15,1.91.13,2.17-.12A18,18,0,0,0,272,.6l.29-.06a7,7,0,0,0,1.54,0,8.4,8.4,0,0,0,1.27-.08,1.8,1.8,0,0,0,.7,0l0,.06a7.17,7.17,0,0,0,1.49-.12c.23,0,.31.09.35.18,1,0,2.44,0,2.5-.24h0v0c.44,0,.09.15.13.26.39,0,.6.09,1,.1l0,0a11.52,11.52,0,0,0,3.1,0,1.37,1.37,0,0,0-.68-.13c1.33,0,2.66-.09,3.86-.06l.54.07a.65.65,0,0,0,.29,0c.35,0,.69,0,1,.08,1.38-.13,1.22.4,2.31.24-.09-.18-.65-.21-1-.29L291,.3a2.38,2.38,0,0,0,.84,0c.1-.15-.76,0-.7-.14a6.22,6.22,0,0,1,2.55.35,7.8,7.8,0,0,1,1.65-.1,11,11,0,0,0,1.5.15L296.73.5l.36,0c-.15,0-.17.19.12.19a.87.87,0,0,1,.64-.32.92.92,0,0,0,.51.07h0a1.65,1.65,0,0,1,.56.2c-.64,0-.62.23-.67.37-.68.08-.45-.27-.93-.14-1.3.56,2.26.37,3,.2A7.12,7.12,0,0,1,298.6.82c1.07-.08,1.49.27,2.77.24.1-.15-.64,0-.58-.15s.06-.1.22-.11a5.24,5.24,0,0,0,1.57.1c-.12,0-.12.14-.37.15,0,.13.83,0,1.17.08-.2-.08-.19-.22-.59-.24a3.69,3.69,0,0,1,1.57.11c.3,0,.71-.12.92,0,0,.08-.51,0-.46.11l1.16.11c.38,0-.46-.11,0-.15.69.09,1.25-.13,1.84,0-.37.11-1-.09-1,.12l.1,0a1.39,1.39,0,0,0-.4.24,10.74,10.74,0,0,0,1.13.15l.09.08a4.32,4.32,0,0,0-1.15.15l-.17,0c.05.23.24.47.21.72.1.06.4.05.43.13h0a5.67,5.67,0,0,0,.62.12c.59-.14,1.06-.24.82-.48a1.93,1.93,0,0,1-.27,0c-.06.06-.45.23-.28.22-.29.11-.8.09-.81-.09.28,0,.43,0,.41-.08s-.36.06-.54,0c.14-.05.14-.16.28-.21s.27,0,.26.13c.24-.06.18-.21.55-.22-.16,0-.9-.07-.8-.3a2.41,2.41,0,0,1,.5.06v0h.1c.46.1.94.22,1.14,0l0,0,.24.13h-.47c0,.07-.37.24-.1.29s.59-.07,1-.1l.19.08.15,0h-.75a1.69,1.69,0,0,1-.68.26c.34,0,.49.09.81.11a6.53,6.53,0,0,0,1.3-.12l.24.12a6,6,0,0,0-1.55.22"/></g></g></svg>