<?xml version="1.0" encoding="utf-8"?>
<!-- Generator: Adobe Illustrator 16.0.0, SVG Export Plug-In . SVG Version: 6.00 Build 0)  -->
<!DOCTYPE svg PUBLIC "-//W3C//DTD SVG 1.1//EN" "http://www.w3.org/Graphics/SVG/1.1/DTD/svg11.dtd">
<svg version="1.1" id="Layer_1" xmlns="http://www.w3.org/2000/svg" xmlns:xlink="http://www.w3.org/1999/xlink" x="0px" y="0px"
	 width="566.93px" height="425.2px" viewBox="0 0 566.93 425.2" enable-background="new 0 0 566.93 425.2" xml:space="preserve">
<g>
	<g>
		<g>
			<path fill="#51B848" d="M114.873,152.392c0,0-18.591-24.957,4.556-31.987c52.078-12.387,36.462,231.308,36.462,231.308
				S199.431,74.816,108.5,91.654c-24.471,4.531-35.057,35.476-20.712,49.597C100.678,153.939,114.873,152.392,114.873,152.392z"/>
		</g>
		<g>
			<path fill="#51B848" d="M246.345,152.392c0,0,18.59-24.957-4.555-31.987c-52.08-12.387-36.462,231.308-36.462,231.308
				S161.788,74.816,252.717,91.654c24.472,4.531,35.057,35.476,20.712,49.597C260.54,153.939,246.345,152.392,246.345,152.392z"/>
		</g>
		<g>
			<path fill="#51B848" d="M180.61,2.72c0,0-38.835,61.402-38.579,77.521c0,13.95,15.164,12.705,24.328,46.298
				c5.576,13.065,14.251,295.883,14.251,295.883s8.674-282.817,14.25-295.883c9.161-33.593,24.326-32.348,24.326-46.298
				C219.443,64.122,180.61,2.72,180.61,2.72z"/>
		</g>
	</g>
	<g>
		<g>
			<path fill="#51B848" d="M279.025,166.321l-23.289,61.335h-10.914l-23.828-61.335h13.219l15.987,43.091l15.758-43.091H279.025z"/>
			<path fill="#51B848" d="M325.229,210.026h-35.514c1.771,5.21,6.072,9.351,12.608,9.351c3.996,0,8.301-1.455,10.99-3.834
				l6.993,6.979c-6.147,4.6-11.836,6.287-18.368,6.287c-13.297,0-23.751-10.428-23.751-23.31c0-12.88,10.529-23.305,23.674-23.305
				c12.605,0,23.752,9.583,23.752,23.23C325.613,206.88,325.459,208.414,325.229,210.026z M314.008,201.131
				c-1.77-5.597-6.613-9.354-12.225-9.354c-5.535,0-10.297,3.757-12.068,9.354H314.008z"/>
			<path fill="#51B848" d="M358.899,226.662c-2.23,1.455-5.379,2.146-8.377,2.146c-10.456,0-13.989-5.059-13.989-16.179v-19.396
				h-5.845v-4.216c7.152-3.605,12.453-10.045,13.685-18.708h3.228v12.957h11.222v9.968h-11.222v20.164
				c0,4.525,2.229,5.521,4.997,5.521c1.766,0,4.536-0.537,6.302-1.992V226.662z"/>
			<path fill="#51B848" d="M412.556,210.026h-35.513c1.766,5.21,6.074,9.351,12.604,9.351c4,0,8.301-1.455,10.992-3.834l6.995,6.979
				c-6.147,4.6-11.838,6.287-18.371,6.287c-13.297,0-23.752-10.428-23.752-23.31c0-12.88,10.533-23.305,23.677-23.305
				c12.606,0,23.75,9.583,23.75,23.23C412.938,206.88,412.786,208.414,412.556,210.026z M401.332,201.131
				c-1.77-5.597-6.609-9.354-12.221-9.354c-5.534,0-10.303,3.757-12.068,9.354H401.332z M401.41,163.024l-11.07,14.799h-8.146
				l6.917-14.799H401.41z"/>
			<path fill="#51B848" d="M436.85,228.887c-6.763,0-12.527-2.379-16.83-7.9l6.685-6.743c2.693,3.372,6.229,5.364,10.224,5.364
				c3.46,0,6.071-1.303,6.071-3.832c0-2.685-3.456-4.219-9.378-5.98c-6.992-2.072-13.682-6.289-13.682-13.955
				c0-8.664,8.763-13.646,17.143-13.646c6.765,0,12.299,2.529,16.603,7.666l-6.608,6.672c-2.54-3.145-5.843-5.138-9.762-5.138
				c-2.69,0-6.383,1.381-6.383,4.14c0,2.375,3.229,3.911,9.073,5.673c7.607,2.224,13.984,6.823,13.984,14.029
				C453.989,224.133,444.922,228.887,436.85,228.887z"/>
			<path fill="#51B848" d="M477.899,228.887c-6.767,0-12.528-2.379-16.832-7.9l6.688-6.743c2.689,3.372,6.226,5.364,10.219,5.364
				c3.461,0,6.072-1.303,6.072-3.832c0-2.685-3.456-4.219-9.376-5.98c-6.996-2.072-13.682-6.289-13.682-13.955
				c0-8.664,8.764-13.646,17.143-13.646c6.763,0,12.299,2.529,16.601,7.666l-6.607,6.672c-2.538-3.145-5.844-5.138-9.763-5.138
				c-2.69,0-6.383,1.381-6.383,4.14c0,2.375,3.229,3.911,9.073,5.673c7.608,2.224,13.989,6.823,13.989,14.029
				C495.042,224.133,485.972,228.887,477.899,228.887z"/>
			<path display="none" fill="#51B848" d="M543.93,183.266l-19.985,52.672c-2.998,7.973-7.686,11.119-14.447,11.119
				c-1.001,0-276.666-0.154-277.819-0.459l8.007-10.277c1.998,0.844,266.43,1.307,267.965,1.307c3.459,0,6.534-1.307,8.07-5.598
				l1.54-4.447l-17.142-44.316h12.067l10.223,28.522l9.608-28.522H543.93z"/>
		</g>
		<path fill="#51B848" d="M543.93,183.266l-19.985,52.672c-2.998,7.973-7.686,11.119-14.447,11.119c-1.001,0-64.843,0.459-411.832,0
			c-17.124-0.023-57.378-9.43-57.378-9.43c1.998,0.842,465.828,0,467.363,0c3.459,0,6.534-1.307,8.07-5.598l1.54-4.447
			l-17.142-44.316h12.067l10.223,28.522l9.608-28.522H543.93z"/>
		<path fill="#51B848" d="M279.025,166.321l-23.289,61.335h-10.914l-23.828-61.335h13.219l15.987,43.091l15.758-43.091H279.025z"/>
		<g>
			<path fill="#51B848" d="M79.066,216.602h-6.442v-25.992l-5.403,2.072v-5.431l11.845-4.394V216.602z"/>
			<path fill="#51B848" d="M108.201,216.602H83.764l12.801-15.131c0.499-0.609,1.004-1.243,1.517-1.907
				c0.513-0.664,0.97-1.333,1.372-2.011c0.401-0.677,0.734-1.354,0.998-2.031c0.263-0.677,0.395-1.333,0.395-1.969
				c0-1.493-0.464-2.659-1.392-3.502c-0.929-0.843-2.071-1.265-3.43-1.265c-1.579,0-2.971,0.394-4.176,1.182
				c-1.205,0.788-2.224,1.803-3.055,3.047l-4.488-4.436c1.468-1.852,3.131-3.274,4.988-4.27c1.856-0.996,4.156-1.494,6.899-1.494
				c1.44,0,2.833,0.216,4.177,0.644c1.344,0.428,2.542,1.071,3.595,1.927c1.052,0.858,1.897,1.922,2.535,3.192
				c0.638,1.271,0.957,2.736,0.957,4.395c0,1.134-0.153,2.19-0.458,3.171c-0.305,0.981-0.713,1.936-1.227,2.861
				c-0.512,0.925-1.115,1.838-1.807,2.736c-0.693,0.898-1.413,1.817-2.162,2.757l-4.738,5.886h11.138V216.602z"/>
			<path fill="#51B848" d="M123.787,216.602h-6.442v-25.992l-5.402,2.072v-5.431l11.845-4.394V216.602z"/>
			<path fill="#51B848" d="M136.753,216.602h-6.358v-6.342h6.358V216.602z"/>
		</g>
	</g>
</g>
</svg>
