<svg id="Réteg_1" data-name="Réteg 1" xmlns="http://www.w3.org/2000/svg" viewBox="0 0 129 25"><defs><style>.cls-1{fill:#859095;}.cls-2{fill:#fff;}.cls-3{fill:#fd0;}</style></defs><title>footer_nyakkendő</title><path class="cls-1" d="M3.3,5.46l-.9.12C7,11.09,14.16,7.37,20.17,8,16.48,1.09,9.12,4.82,3.3,5.46m29.06.33c-3.8-3.27-9.42-3.56-14.46-2.5l-1.11.12c2.41,1.41,4,4.35,6.86,4.54,2,.2,4,.49,6,.86s3.94.77,6.16,1a20.16,20.16,0,0,0-3.43-4m7.42-1c-1.58-.3-3.2-.48-4.84-.72A13.27,13.27,0,0,1,33,3.73L32,3.56a28.63,28.63,0,0,1,2.43,2.95A16.44,16.44,0,0,0,37.1,9.26c5.24,2.18,10.85,2,16.28,3a18.75,18.75,0,0,0-13.6-7.45M76.69,6a33.55,33.55,0,0,1,2.94-2.51,59,59,0,0,0-10.8.34c-1.79.19-3.57.43-5.22.72a58.58,58.58,0,0,1-15.55.94h-.49A143.79,143.79,0,0,1,65.39,22.61C69.07,18.5,70.62,13,74,8.76c.85-1,1.74-1.91,2.66-2.8m19.5-.79c-4.27-.39-8.53-1.76-13-1.56l-1-.07a42.73,42.73,0,0,0-3.69,3c-1.17,1.07-2.28,2.2-3.35,3.37,6.88-2,16,1.34,21-4.74m16.07-1c-4.07,1-8.13,2-12.45,1.5l-1-.17c-2,1.22-3.37,3-5.31,4.16,6.4,1.76,15.89,2,18.79-5.49m14.34-.58c-1.85-.1-3.73-.15-5.63-.15a45.36,45.36,0,0,0-5.37.36l-1,.08c-.77,2-2.28,3.14-3,5.07,1.84-.7,3.86-.6,5.9-.67A12.82,12.82,0,0,0,123.59,7a5.89,5.89,0,0,0,3-3.41"/><path class="cls-2" d="M65.88,15.91a1.2,1.2,0,0,0-.71-.2,1.3,1.3,0,0,0-.66.31s.27-.42.54-.44l-.21-.19,0,0v0a.1.1,0,0,1-.1.09.09.09,0,0,1-.09-.08.09.09,0,0,1,.09-.1h0l.05,0-.07-.07h0a.09.09,0,0,1-.09-.09.09.09,0,0,1,.1-.09.09.09,0,0,1,.09.09v0l.07.07,0-.05v0a.09.09,0,0,1,.1-.09.09.09,0,0,1,0,.18h0l0,.05.27.25h0a.83.83,0,0,1,.69.35m2.45-2.19a1.1,1.1,0,0,0-1.31-1,1.48,1.48,0,0,0-.8.29,1.35,1.35,0,0,0-.34.37,3.15,3.15,0,0,0,.28-1.28A1.48,1.48,0,0,0,65.25,11a7.16,7.16,0,0,1-.59-.41s-.36.4-.5.51a1.48,1.48,0,0,0-.68,1.3,3.18,3.18,0,0,0,.53,1.2,1.73,1.73,0,0,0-.41-.3,1.51,1.51,0,0,0-.85-.13,1.1,1.1,0,0,0-1.1,1.2,1.45,1.45,0,0,0,.56,1,3.43,3.43,0,0,0,.45.29s.11-.7.62-.75,1,.71,1,1a1.49,1.49,0,0,1-.12.76c-.22.49-.55.25-.69.06-.09.52-.06.76.15.93a.66.66,0,0,0,.67.05,1.11,1.11,0,0,0,.38-.36s-.15.52.75,1.16c.75-.8.51-1.28.51-1.28a1.11,1.11,0,0,0,.45.28.67.67,0,0,0,.64-.17c.17-.21.16-.45,0-.95-.1.22-.37.51-.69.07a1.51,1.51,0,0,1-.26-.72c0-.32.14-1.14.79-1.2s.75.62.75.62a3,3,0,0,0,.4-.38,1.43,1.43,0,0,0,.34-1.1"/><path class="cls-3" d="M11.33,8.57A37.47,37.47,0,0,1,6.25,7a4.48,4.48,0,0,1-2-1.63c-.32,0-.64.1-1,.13l-.9.12c2.44,2.92,5.6,3.24,8.93,3m5.46-5.15c2.3,1.34,3.83,4.05,6.5,4.46-1-.93-2.07-2-3.13-3.15a10.64,10.64,0,0,0-1.82-1.52l-.44.08c-.7.07-1.11.13-1.11.13M37.1,9.26c.59.24,1.18.44,1.78.63a27,27,0,0,1-2.45-3.05c-.72-1-1.5-2-2.18-2.86-.45-.07-.9-.18-1.25-.25L32,3.56a28.63,28.63,0,0,1,2.43,2.95A16.44,16.44,0,0,0,37.1,9.26M76.69,6a33.55,33.55,0,0,1,2.94-2.51c-.66-.05-1.33-.07-2-.09l-1,.86C75.77,5.11,74.88,6.05,74,7c-3.41,4.25-5,9.74-8.64,13.85A141.82,141.82,0,0,0,49.78,5.57c-.57,0-1.15-.06-1.72-.12h-.49A143.79,143.79,0,0,1,65.39,22.61C69.07,18.5,70.62,13,74,8.76c.85-1,1.74-1.91,2.66-2.8m19.49-.79c-.68-.06-1.37-.15-2.06-.26A19.29,19.29,0,0,1,91,7c-1.14.57-2.69,1.37-4,2.08,3.56-.22,6.88-1,9.27-3.87m16.08-1-1.8.43A8.43,8.43,0,0,1,109,6.46a34.11,34.11,0,0,1-6.23,4.13c4.11-.41,7.88-2.17,9.53-6.4m14.34-.58c-.44,0-.89,0-1.33,0a12,12,0,0,1-3.15,2.89c-1.24.87-3,1.19-4.21,1.82A11.9,11.9,0,0,0,123.59,7a5.89,5.89,0,0,0,3-3.41"/></svg>